<svg width="40" height="40" viewBox="0 0 40 40" fill="none" xmlns="http://www.w3.org/2000/svg">
<rect x="0.5" y="0.5" width="39" height="39" rx="19.5" stroke="#1C68B7"/>
<rect width="16" height="16" transform="translate(12 12)" fill="white" fill-opacity="0.01"/>
<path fill-rule="evenodd" clip-rule="evenodd" d="M20.0001 12.9336C17.8646 12.9336 16.1335 14.6648 16.1335 16.8003C16.1335 18.5633 17.3135 20.0508 18.9268 20.516C17.6531 20.6712 16.5607 21.1217 15.7378 21.9327C14.6904 22.965 14.1602 24.5016 14.1602 26.5068C14.1602 26.7867 14.387 27.0135 14.6668 27.0135C14.9467 27.0135 15.1735 26.7867 15.1735 26.5068C15.1735 24.6722 15.6565 23.4356 16.4491 22.6544C17.2432 21.8719 18.4287 21.4669 20.0001 21.4669C21.5715 21.4669 22.757 21.8719 23.5512 22.6545C24.3437 23.4356 24.8268 24.6722 24.8268 26.5068C24.8268 26.7867 25.0536 27.0135 25.3335 27.0135C25.6133 27.0136 25.8401 26.7867 25.8401 26.5069C25.8401 24.5016 25.3098 22.965 24.2624 21.9327C23.4395 21.1217 22.3471 20.6712 21.0735 20.516C22.6867 20.0508 23.8668 18.5633 23.8668 16.8003C23.8668 14.6648 22.1356 12.9336 20.0001 12.9336ZM17.1468 16.8003C17.1468 15.2244 18.4243 13.9469 20.0001 13.9469C21.576 13.9469 22.8535 15.2244 22.8535 16.8003C22.8535 18.3761 21.576 19.6536 20.0001 19.6536C18.4243 19.6536 17.1468 18.3761 17.1468 16.8003Z" fill="#00509D"/>
</svg>
