<svg width="60" height="60" viewBox="0 0 60 60" fill="none" xmlns="http://www.w3.org/2000/svg">
<g clip-path="url(#clip0_9488_42940)">
<path d="M60 30C60 38.0518 56.8275 45.3628 51.6654 50.751C46.2052 56.4508 38.5166 60 30 60C21.4834 60 13.7956 56.4508 8.3346 50.751C3.17247 45.3628 0 38.0518 0 30C0 13.4315 13.4315 0 30 0C46.5685 0 60 13.4315 60 30Z" fill="#E0E1E6"/>
<path d="M30.0016 31.6087C36.7702 31.6087 42.2571 26.1217 42.2571 19.3532C42.2571 12.5846 36.7702 7.09766 30.0016 7.09766C23.2331 7.09766 17.7461 12.5846 17.7461 19.3532C17.7461 26.1217 23.2331 31.6087 30.0016 31.6087Z" fill="white"/>
<path d="M50.6487 48.2725C50.4082 48.5443 50.1627 48.811 49.9112 49.0735C44.893 54.3118 37.8276 57.574 30.0001 57.574C22.1727 57.574 15.1072 54.3127 10.089 49.0735C9.83755 48.8119 9.59202 48.5443 9.35156 48.2725C13.0447 40.5865 20.9035 35.2812 30.0001 35.2812C39.0967 35.2812 46.9555 40.5865 50.6487 48.2725Z" fill="white"/>
</g>
<defs>
<clipPath id="clip0_9488_42940">
<rect width="60" height="60" fill="white"/>
</clipPath>
</defs>
</svg>
